<?xml version="1.0" encoding="UTF-8"?>
<svg width="78px" height="30px" viewBox="0 0 78 30" version="1.1" xmlns="http://www.w3.org/2000/svg" xmlns:xlink="http://www.w3.org/1999/xlink">
    <!-- Generator: Sketch 52.5 (67469) - http://www.bohemiancoding.com/sketch -->
    <title>Group</title>
    <desc>Created with Sketch.</desc>
    <g id="Page-1" stroke="none" stroke-width="1" fill="none" fill-rule="evenodd">
        <g id="Arumi---Home" transform="translate(-41.000000, -14.000000)" fill="#FFFFFF" fill-rule="nonzero">
            <g id="Group" transform="translate(41.000000, 14.000000)">
                <path d="M0,14.3272582 L4.09014085,10.8901138 L7.4629108,8 L11.6807512,11.2672475 L11.6807512,24.0953947 L14,26.0650782 L10.9633803,28.958926 L7.54741784,26.1098862 L4.21596244,29 L0,25.5217817 L0,14.3272582 Z M7.4629108,25.9399893 L7.4629108,13.7410206 L4.14460094,10.8490398 L4.21971831,23.2123044 L7.4629108,25.9399893 Z" id="Shape"></path>
                <polygon id="Shape" points="31.583848 8.34659391 34.1016627 10.5636332 34.1016627 23.9994719 37.3871734 26.8245027 37.3871734 11.6518219 41.6532067 8 41.6532067 24.9114593 44 26.9542334 40.9292162 29.9554656 37.4726841 27.0007041 34.1016627 30 29.8356295 26.3927126 29.8356295 12.9994719 28 11.4330224"></polygon>
                <polygon id="Shape" points="48.2156813 8.56350673 50.8284276 10.9046739 54.3271052 8 58.3719819 10.9550216 61.7861957 8 66 11.6095414 66 26.3962679 61.7861957 29.961271 61.7861957 13.9119796 58.4076444 10.9976234 58.4076444 26.3962679 54.1919631 29.961271 54.1919631 13.9119796 50.8134118 10.9976234 50.8134118 26.4330605 46.5996075 30 46.5996075 14.5200246 44 12.2601884"></polygon>
                <polygon id="Shape" points="20 26.4038014 15.92 30 15.92 14.4471257 14 12.735116 18.0818182 9 19.9 10.6787478"></polygon>
                <polygon id="Shape" points="24.5304007 8 28 10.8860511 24.5304007 14 21 11.0530452"></polygon>
                <polygon id="Shape" points="72.5304007 0 76 2.88408644 72.5304007 6 69 3.05304519"></polygon>
                <polygon id="Shape" points="73.1384937 8 75.6746862 10.2315454 75.6746862 24.6158612 78 26.6332094 74.1100418 30 71.5738494 27.7704018 71.4476987 13.6898566 69 11.5926713"></polygon>
            </g>
        </g>
    </g>
</svg>