<?xml version="1.0" encoding="UTF-8"?>
<svg viewBox="0 0 428 168" version="1.1" xmlns="http://www.w3.org/2000/svg" xmlns:xlink="http://www.w3.org/1999/xlink">
    <!-- Generator: Sketch 52.5 (67469) - http://www.bohemiancoding.com/sketch -->
    <title>Group 5</title>
    <desc>Created with Sketch.</desc>
    <g id="Page-1" stroke="none" stroke-width="1" fill="none" fill-rule="evenodd">
        <g id="Arumi---Home" transform="translate(-507.000000, -255.000000)" fill-rule="nonzero" stroke="#FFFFFF" stroke-width="2">
            <g id="Group-5" transform="translate(508.000000, 257.000000)">
                <path d="M0,77.3781028 C8.71571553,70.1203434 16.1443901,63.895293 22.2860238,58.7029516 C28.4276575,53.5106103 34.5534149,48.276293 40.663296,43 L63.6451186,60.7520448 L63.6451186,130.451645 L76.2820513,141.153592 L59.7363669,156.876831 L41.1237511,141.397048 L22.9715902,157.1 L0,138.20168 L0,77.3781028 Z M40.663296,140.473942 L40.663296,74.1928787 L22.8979187,59.2187086 L22.2860238,58.7029516 L22.5827615,58.4797831 L22.9920549,125.653521 L40.663296,140.473942 Z" id="Shape"></path>
                <polygon id="Shape" points="172.091479 45.3498269 185.810342 57.3957402 185.810342 130.397131 203.712163 145.746465 203.712163 63.3082321 226.956575 43.4666667 226.956575 135.352262 239.74359 146.451335 223.011755 162.75803 204.178086 146.703826 185.810342 163 162.56593 143.400405 162.56593 70.6304641 152.564103 62.1194215"></polygon>
                <polygon id="Shape" points="262.713648 46.5283866 276.949766 59.2487281 296.013073 43.4666667 318.052466 59.5222838 336.655554 43.4666667 359.615385 63.0785083 359.615385 143.419722 336.655554 162.789573 336.655554 75.5884224 318.24678 59.7537541 318.24678 143.419722 295.276722 162.789573 295.276722 75.5884224 276.867949 59.7537541 276.867949 143.619629 253.908118 163 253.908118 78.8921339 239.74359 66.6136901"></polygon>
                <polygon id="Shape" points="108.974359 143.460654 86.7435897 163 86.7435897 78.4960496 76.2820513 69.1941303 98.5227273 48.9 108.429487 58.0211963"></polygon>
                <polygon id="Shape" points="128.210516 43.4666667 147.115385 59.1475442 128.210516 76.0666667 108.974359 60.0548788"></polygon>
                <polygon id="Shape" points="395.197696 0 414.102564 15.670203 395.197696 32.6 375.961538 16.5882122"></polygon>
                <polygon id="Shape" points="398.511023 43.4666667 412.330021 55.5913967 412.330021 133.746179 425 144.707105 403.804715 163 389.985718 150.88585 389.298359 74.3815543 375.961538 62.9868472"></polygon>
            </g>
        </g>
    </g>
</svg>